<svg height="512pt" viewBox="0 0 512 512" width="512pt" xmlns="http://www.w3.org/2000/svg"><path d="m512 256c0 141.386719-114.613281 256-256 256s-256-114.613281-256-256 114.613281-256 256-256 256 114.613281 256 256zm0 0" fill="#ffdf47"/><path d="m512 256c0-3.046875-.074219-6.074219-.179688-9.097656l-148.621093-148.621094c-26.738281-28.710938-64.867188-46.675781-107.199219-46.675781-80.894531 0-146.46875 65.578125-146.46875 146.46875v154.582031h-19.960938v60.992188l85.183594 85.179687c25.527344 8.539063 52.84375 13.171875 81.246094 13.171875 141.386719 0 256-114.613281 256-256zm0 0" fill="#fdc000"/><path d="m402.46875 356.117188h-292.9375v-158.042969c0-80.890625 65.574219-146.46875 146.46875-146.46875s146.46875 65.578125 146.46875 146.46875zm0 0" fill="#fff"/><path d="m402.46875 198.070312v158.050782h-146.46875v-304.519532c40.441406 0 77.058594 16.398438 103.570312 42.898438 26.507813 26.511719 42.898438 63.121094 42.898438 103.570312zm0 0" fill="#fff5cb"/><path d="m246.609375 245.367188h18.457031v110.75h-18.457031zm0 0" fill="#00b7be"/><path d="m255.835938 245.367188h9.230468v110.75h-9.230468zm0 0" fill="#00777b"/><path d="m349.117188 154.042969s-134.179688-2.992188-93.277344 93.277343c96.269531 40.902344 93.277344-93.277343 93.277344-93.277343zm0 0" fill="#00d9e0"/><path d="m255.835938 247.320312 93.277343-93.277343c.003907 0 2.996094 134.183593-93.277343 93.277343zm0 0" fill="#00b7be"/><path d="m162.882812 154.042969s134.179688-2.992188 93.277344 93.277343c-96.269531 40.902344-93.277344-93.277343-93.277344-93.277343zm0 0" fill="#00f8fe"/><path d="m256.164062 247.320312-93.277343-93.277343c-.003907 0-2.996094 134.183593 93.277343 93.277343zm0 0" fill="#00d9e0"/><path d="m89.570312 352.65625h332.859376v60.992188h-332.859376zm0 0" fill="#4b5be5"/><path d="m256 352.660156h166.429688v60.988282h-166.429688zm0 0" fill="#1c2ede"/><path d="m306.460938 383.152344c0 7.226562-5.855469 13.082031-13.082032 13.082031-7.226562 0-13.085937-5.855469-13.085937-13.082031 0-7.226563 5.859375-13.085938 13.085937-13.085938 7.226563 0 13.082032 5.859375 13.082032 13.085938zm0 0" fill="#00f8fe"/><path d="m345.039062 383.152344c0 7.226562-5.855468 13.082031-13.082031 13.082031-7.226562 0-13.085937-5.855469-13.085937-13.082031 0-7.226563 5.859375-13.085938 13.085937-13.085938 7.226563 0 13.082031 5.859375 13.082031 13.085938zm0 0" fill="#fff5cb"/><path d="m383.621094 383.152344c0 7.226562-5.859375 13.082031-13.085938 13.082031-7.226562 0-13.082031-5.855469-13.082031-13.082031 0-7.226563 5.855469-13.085938 13.082031-13.085938 7.226563 0 13.085938 5.859375 13.085938 13.085938zm0 0" fill="#00f8fe"/></svg>